<?xml version="1.0" encoding="UTF-8" ?>
<!DOCTYPE svg PUBLIC "-//W3C//DTD SVG 1.1//EN" "http://www.w3.org/Graphics/SVG/1.1/DTD/svg11.dtd">
<svg width="563pt" height="489pt" viewBox="0 0 563 489" version="1.1" xmlns="http://www.w3.org/2000/svg">
<path fill="#000000" opacity="1.00" d=" M 255.66 0.00 L 307.34 0.00 C 392.51 2.15 477.81 3.08 563.00 0.97 L 563.00 1.90 C 511.91 82.51 467.66 167.24 419.96 249.91 C 373.65 329.41 324.47 407.47 281.88 489.00 L 281.00 489.00 C 241.81 412.82 195.61 340.39 152.84 266.17 C 100.85 178.68 54.58 87.81 0.00 1.89 L 0.00 0.97 C 85.19 3.09 170.49 2.15 255.66 0.00 M 153.52 6.44 C 106.53 5.84 59.51 10.47 12.55 7.46 C 79.13 127.12 147.05 247.62 217.42 365.58 C 237.42 402.60 262.27 436.81 281.14 474.24 C 373.48 320.60 463.31 164.21 550.70 7.80 C 418.38 7.62 285.90 4.84 153.52 6.44 Z" />
<path fill="#000000" opacity="1.00" d=" M 271.52 13.45 C 360.04 14.52 448.57 15.23 537.07 15.98 C 493.77 92.53 449.89 169.14 407.29 246.29 C 364.11 316.33 323.33 389.06 281.14 458.68 C 237.18 382.60 192.23 306.62 146.95 231.05 C 107.52 158.77 66.30 87.43 25.96 15.96 C 107.81 15.10 189.62 15.16 271.52 13.45 M 275.84 16.35 C 269.53 17.83 269.28 27.73 261.31 27.22 C 236.57 35.34 220.55 55.67 205.99 76.09 C 231.02 69.17 246.23 43.29 272.52 36.63 C 280.94 36.19 273.99 21.60 283.55 24.11 C 286.96 28.50 284.67 36.61 291.93 37.16 C 317.83 43.45 332.01 70.26 357.04 76.10 C 350.26 63.11 337.31 54.80 329.64 42.37 C 319.09 34.29 305.74 30.13 294.43 23.74 C 291.69 15.60 283.29 14.40 275.84 16.35 M 256.17 19.03 C 254.92 28.13 265.08 17.67 256.17 19.03 M 303.17 19.03 C 301.92 28.13 312.08 17.67 303.17 19.03 M 97.27 20.28 C 93.58 28.66 95.35 40.77 90.86 46.83 C 79.52 43.03 79.51 50.98 85.69 58.04 C 80.04 64.28 70.49 68.73 64.99 76.04 C 72.29 83.16 83.13 82.96 91.04 88.31 C 84.12 98.40 98.36 105.59 106.16 99.23 C 116.27 96.56 114.02 79.33 126.29 81.26 C 130.81 90.16 122.82 98.20 117.84 104.93 C 112.59 111.15 117.79 119.04 119.27 125.66 C 124.33 129.93 128.20 119.97 130.42 116.88 C 129.63 132.90 140.98 147.00 139.54 163.40 C 139.60 167.91 138.20 172.98 140.83 177.02 C 147.76 157.40 171.47 139.78 162.54 115.49 C 159.10 109.57 164.46 106.31 170.41 108.37 C 169.24 102.77 170.65 97.61 176.57 96.40 C 182.19 93.13 170.07 88.56 176.12 86.00 C 185.32 82.25 196.07 79.62 201.84 70.81 C 210.02 59.92 213.67 45.17 222.68 35.76 C 214.66 34.01 207.52 44.25 198.78 45.74 C 188.32 51.27 175.25 48.59 165.77 56.03 C 167.54 51.59 171.54 47.65 169.78 42.41 C 163.42 42.38 156.35 43.32 151.14 47.22 C 145.61 54.86 144.60 70.11 132.35 69.78 C 126.91 62.86 134.51 55.95 137.91 50.32 C 139.19 42.80 138.22 33.79 130.20 30.48 C 124.92 27.71 123.25 39.15 118.23 34.84 C 112.05 29.32 105.93 21.54 97.27 20.28 M 116.23 20.19 C 111.07 26.45 122.79 22.26 116.23 20.19 M 150.44 20.17 C 145.32 26.55 158.22 21.00 150.44 20.17 M 410.12 20.13 C 409.77 28.02 418.13 19.32 410.12 20.13 M 444.89 20.06 C 443.81 28.43 452.34 20.21 444.89 20.06 M 463.61 20.52 C 456.47 24.59 449.56 29.06 444.18 35.37 C 439.35 38.07 437.91 27.75 432.74 30.53 C 424.31 34.14 422.95 44.84 426.17 52.44 C 430.11 57.02 435.46 63.84 430.63 69.76 C 418.11 70.23 417.54 54.12 411.31 46.73 C 405.99 43.50 399.47 42.10 393.27 42.27 C 391.89 47.47 395.21 51.64 397.25 56.05 C 387.51 48.65 374.30 50.91 363.57 45.39 C 354.98 44.23 348.18 33.81 340.32 35.76 C 349.65 45.28 352.69 60.69 361.51 71.46 C 367.56 80.15 378.48 82.24 387.52 86.37 C 391.61 89.22 383.06 91.67 385.20 95.54 C 388.37 97.76 393.76 98.45 392.54 103.59 C 388.47 112.75 405.27 104.23 400.97 113.37 C 390.92 138.26 414.22 156.98 422.12 177.05 C 425.84 171.37 422.12 164.06 423.97 157.74 C 423.82 143.39 433.69 131.09 432.58 116.88 C 435.21 120.28 437.23 127.48 442.70 126.76 C 445.73 122.35 446.35 116.39 447.62 111.22 C 445.76 100.74 430.73 93.10 436.71 81.26 C 441.90 80.59 446.71 83.95 447.94 89.04 C 450.34 98.85 463.33 105.52 471.97 98.89 C 477.75 96.64 468.13 88.55 474.44 86.37 C 482.50 83.43 491.26 81.79 498.02 76.03 C 492.21 69.07 484.35 64.25 477.28 58.70 C 477.34 54.53 482.53 51.88 482.11 47.45 C 476.82 44.78 466.89 50.63 469.28 39.73 C 466.90 34.97 470.09 19.98 463.61 20.52 M 199.28 20.86 C 194.95 28.24 207.14 21.00 199.28 20.86 M 216.54 21.10 C 216.57 27.51 225.21 19.31 216.54 21.10 M 236.27 21.16 C 235.69 29.44 245.81 17.80 236.27 21.16 M 322.10 20.66 C 323.54 29.00 331.25 19.37 322.10 20.66 M 342.41 21.11 C 342.43 27.82 351.12 18.81 342.41 21.11 M 360.99 21.07 C 361.46 28.60 368.40 20.19 360.99 21.07 M 183.03 23.25 C 182.36 32.98 193.24 22.41 183.03 23.25 M 378.36 23.43 C 368.66 26.91 385.24 28.75 378.36 23.43 M 167.02 24.02 C 165.93 31.34 174.34 22.93 167.02 24.02 M 393.02 24.02 C 391.92 31.34 400.33 22.93 393.02 24.02 M 76.55 27.40 C 68.18 30.25 66.31 41.53 61.18 48.22 C 56.31 54.69 69.93 65.87 70.95 55.34 C 63.04 50.60 67.43 39.66 73.86 35.58 C 76.35 31.31 82.00 38.41 84.42 34.19 C 87.05 29.87 80.68 24.88 76.55 27.40 M 481.67 27.23 C 476.80 28.08 476.80 37.22 482.32 35.29 C 491.05 31.59 496.89 42.93 496.44 50.46 C 494.60 53.14 489.45 56.13 493.63 59.33 C 500.72 61.88 505.60 50.44 500.31 45.68 C 495.17 38.87 493.03 24.85 481.67 27.23 M 49.49 28.28 C 45.10 31.50 54.18 38.64 57.81 34.63 C 59.34 30.17 53.51 26.24 49.49 28.28 M 508.71 28.23 C 505.05 29.03 502.96 35.73 507.96 35.80 C 514.25 36.63 518.60 24.57 508.71 28.23 M 144.17 30.15 C 143.02 37.68 152.81 27.88 144.17 30.15 M 232.30 30.36 C 223.36 35.58 238.15 34.95 232.30 30.36 M 329.95 30.35 C 326.85 37.36 339.29 33.12 329.95 30.35 M 415.06 29.89 C 415.20 37.34 423.43 28.81 415.06 29.89 M 159.10 32.24 C 154.81 37.75 167.29 32.93 159.10 32.24 M 205.10 32.24 C 200.81 37.75 213.29 32.93 205.10 32.24 M 356.10 32.24 C 351.81 37.75 364.29 32.93 356.10 32.24 M 402.10 32.24 C 397.81 37.75 410.29 32.93 402.10 32.24 M 177.28 33.20 C 171.83 41.55 187.98 32.72 177.28 33.20 M 192.09 33.18 C 188.50 38.12 199.96 34.38 192.09 33.18 M 369.20 33.31 C 364.62 38.82 376.92 33.39 369.20 33.31 M 382.00 32.95 C 382.08 42.58 392.45 31.83 382.00 32.95 M 276.63 38.23 C 272.41 43.37 283.43 52.51 281.09 59.68 C 281.30 52.38 297.16 31.84 276.63 38.23 M 145.02 42.02 C 143.93 49.34 152.34 40.93 145.02 42.02 M 270.27 42.10 C 280.01 64.70 279.39 89.95 274.84 114.02 C 274.77 115.40 272.36 129.69 276.04 123.12 C 280.92 111.63 278.94 98.77 279.65 86.67 C 283.76 82.02 284.34 91.35 283.50 94.16 C 284.22 104.16 281.93 118.09 289.25 124.97 C 286.26 99.30 279.56 71.07 292.07 46.92 C 294.72 42.97 291.97 40.69 288.79 42.60 C 284.51 54.27 281.20 66.95 282.01 79.59 C 277.80 70.81 282.48 46.40 270.27 42.10 M 415.02 42.02 C 413.92 49.34 422.33 40.93 415.02 42.02 M 261.50 46.32 C 253.18 50.10 245.36 55.55 238.74 61.83 C 247.41 57.30 255.59 51.87 264.92 48.57 C 265.47 46.07 263.46 45.72 261.50 46.32 M 298.37 46.21 C 303.19 52.85 316.24 56.06 324.26 61.83 C 316.69 55.55 308.47 47.19 298.37 46.21 M 263.64 53.47 C 253.97 57.39 243.61 62.88 237.26 71.12 C 245.57 66.29 253.55 60.05 263.17 57.31 C 266.52 57.39 271.53 50.33 263.64 53.47 M 295.34 52.98 C 301.92 60.86 317.55 62.91 325.80 71.19 C 318.25 62.61 306.99 54.67 295.34 52.98 M 268.07 60.41 C 259.85 62.83 252.62 67.70 246.07 73.08 C 249.60 70.94 271.58 65.17 268.07 60.41 M 293.11 59.98 C 297.56 67.79 309.51 69.09 317.28 73.78 C 310.70 67.28 302.13 62.33 293.11 59.98 M 267.55 68.44 C 262.50 70.06 255.12 74.39 253.41 77.70 C 257.45 77.69 273.43 70.05 267.55 68.44 M 293.11 67.97 C 295.64 73.56 304.44 77.21 310.32 77.49 C 305.35 73.12 299.69 69.34 293.11 67.97 M 230.25 77.25 C 235.54 95.20 210.71 83.44 201.18 82.52 C 201.06 94.66 204.37 108.15 215.44 114.34 C 207.99 113.93 201.51 123.30 205.85 130.99 C 195.20 124.13 180.37 128.04 171.34 135.13 C 178.19 140.61 186.59 150.37 188.95 158.07 C 173.95 160.78 188.25 171.12 194.51 175.60 C 211.04 183.88 229.47 173.58 245.12 169.17 C 233.20 157.27 216.32 149.48 199.25 149.49 C 197.30 149.60 195.60 148.40 195.11 146.51 C 219.76 142.72 240.96 157.86 257.92 173.90 C 265.25 161.71 272.18 149.59 278.79 137.00 C 256.38 131.86 231.82 120.54 224.05 97.02 C 236.78 108.69 249.45 126.26 268.75 128.96 C 263.64 107.61 259.74 75.77 230.25 77.25 M 327.64 77.45 C 301.43 80.29 299.60 109.11 294.24 128.97 C 313.30 126.04 326.56 109.27 338.88 96.98 C 331.21 120.56 306.47 131.71 284.20 136.98 C 290.64 149.66 297.91 161.72 305.14 173.96 C 322.05 157.97 343.27 142.83 367.90 146.51 C 367.02 149.99 363.23 149.57 360.47 149.36 C 344.67 150.79 328.97 157.85 317.88 169.17 C 336.63 175.73 362.90 187.19 378.32 167.33 C 385.31 163.02 378.54 158.92 373.39 157.79 C 378.25 149.53 384.10 140.65 391.74 135.16 C 382.77 127.51 367.70 124.46 357.15 130.99 C 361.49 123.30 355.01 113.92 347.56 114.34 C 357.94 108.46 363.76 93.24 361.05 82.25 C 352.56 86.36 342.03 86.38 332.43 87.26 C 332.36 83.09 335.82 74.06 327.64 77.45 M 265.52 78.29 C 262.32 79.25 260.23 82.16 257.96 84.42 C 261.01 86.75 274.28 77.14 265.52 78.29 M 294.44 78.13 C 294.23 82.11 301.12 83.99 304.83 85.21 C 303.02 81.36 299.01 77.50 294.44 78.13 M 195.84 81.78 C 182.04 95.09 172.92 113.01 167.11 131.20 C 176.81 115.00 185.18 96.44 197.07 80.99 C 196.76 81.19 196.14 81.59 195.84 81.78 M 365.98 80.99 C 377.73 96.49 386.10 115.06 395.87 131.20 C 389.79 112.73 380.81 93.74 365.98 80.99 M 77.25 89.29 C 69.95 93.83 82.97 92.73 77.25 89.29 M 485.03 88.94 C 481.77 95.36 492.97 91.61 485.03 88.94 M 194.48 91.16 C 187.59 98.92 184.13 109.52 178.05 118.11 C 176.15 119.83 173.14 128.06 178.54 126.67 C 187.52 120.56 190.91 109.17 196.24 100.19 C 197.73 97.29 200.06 89.65 194.48 91.16 M 365.24 91.24 C 366.00 104.13 374.68 115.81 382.60 125.49 C 388.93 130.44 388.13 120.16 384.67 117.36 C 376.57 110.51 376.63 92.40 365.24 91.24 M 201.43 104.49 C 197.01 110.25 192.55 116.89 190.01 123.96 C 196.20 120.86 201.15 109.09 201.43 104.49 M 360.87 104.22 C 363.61 111.06 366.23 120.32 372.99 123.96 C 370.17 116.87 366.14 109.32 360.87 104.22 M 109.18 105.23 C 105.27 110.23 116.64 105.84 109.18 105.23 M 452.18 105.23 C 448.27 110.23 459.64 105.84 452.18 105.23 M 98.12 110.15 C 94.42 116.11 106.15 112.35 98.12 110.15 M 463.19 110.36 C 458.23 117.39 471.01 110.62 463.19 110.36 M 204.52 112.54 C 192.77 124.78 205.62 122.73 204.52 112.54 M 358.30 113.33 C 360.29 126.36 368.14 120.50 358.30 113.33 M 92.17 120.04 C 90.69 128.31 99.13 119.48 92.17 120.04 M 468.17 120.04 C 466.69 128.31 475.13 119.48 468.17 120.04 M 106.98 121.15 C 106.36 129.33 113.34 121.53 106.98 121.15 M 454.23 120.84 C 449.88 128.32 460.09 123.16 454.23 120.84 M 278.42 122.30 C 271.46 130.75 283.86 126.14 278.42 122.30 M 282.91 122.04 C 282.94 132.47 291.01 124.63 282.91 122.04 M 104.02 133.02 C 102.93 140.34 111.34 131.93 104.02 133.02 M 456.02 133.02 C 454.92 140.34 463.33 131.93 456.02 133.02 M 117.38 136.13 C 113.19 144.56 126.86 137.84 117.38 136.13 M 443.27 136.16 C 438.37 145.36 452.88 136.89 443.27 136.16 M 167.34 142.41 C 160.62 154.85 159.29 169.34 152.75 181.87 C 150.05 195.05 154.65 209.06 154.18 222.21 C 148.98 228.86 151.98 238.25 158.07 243.17 C 176.50 243.83 186.73 264.45 205.04 266.51 C 217.81 266.87 229.73 272.89 242.56 272.91 C 240.52 269.76 235.13 266.80 233.31 262.52 C 211.65 256.22 189.90 247.44 172.78 232.26 C 169.08 232.77 162.95 238.35 160.22 232.72 C 158.69 226.53 169.63 226.73 167.42 220.75 C 163.05 202.90 166.33 184.55 168.81 166.74 C 175.29 158.66 168.33 149.07 167.34 142.41 M 394.96 142.18 C 396.56 148.49 389.56 153.05 391.95 159.03 C 397.59 179.17 399.49 200.74 395.43 221.37 C 394.04 226.84 404.35 226.71 402.76 232.69 C 400.51 238.77 393.38 231.49 389.59 232.64 C 372.60 247.50 351.19 256.60 329.66 262.50 C 327.84 266.82 322.52 269.75 320.43 272.91 C 333.26 272.99 345.07 266.75 357.84 266.45 C 376.47 264.57 386.56 243.20 405.55 242.90 C 409.00 238.78 412.83 233.35 411.32 227.78 C 403.83 212.73 416.61 194.63 409.06 178.94 C 402.71 167.39 402.53 152.71 394.96 142.18 M 281.09 144.21 C 276.21 154.08 269.76 163.05 264.96 172.97 C 275.93 174.10 287.03 173.66 298.01 173.03 C 292.54 163.37 288.31 152.65 281.09 144.21 M 112.36 147.23 C 108.15 155.04 121.97 148.51 112.36 147.23 M 448.30 147.25 C 443.24 155.77 457.99 147.67 448.30 147.25 M 124.02 150.02 C 122.93 157.34 131.34 148.93 124.02 150.02 M 436.02 150.02 C 434.92 157.34 443.33 148.93 436.02 150.02 M 118.03 161.00 C 114.74 168.20 124.89 164.73 118.03 161.00 M 129.90 160.97 C 129.50 168.80 136.94 161.71 129.90 160.97 M 431.31 161.26 C 425.99 167.58 437.35 162.67 431.31 161.26 M 444.32 161.33 C 438.32 167.17 449.48 165.34 444.32 161.33 M 179.40 172.28 C 176.45 174.83 176.88 180.06 176.24 183.81 C 181.31 184.62 179.65 173.17 179.40 172.28 M 382.82 171.96 C 384.38 174.91 381.86 184.32 386.65 183.89 C 386.03 179.92 386.76 173.94 382.82 171.96 M 242.32 177.48 C 221.81 192.29 201.19 212.27 174.24 212.70 C 170.08 212.14 170.68 218.27 174.39 217.79 C 186.31 214.69 198.39 211.40 209.03 204.92 C 199.38 211.99 189.68 219.52 181.48 228.54 C 177.99 231.18 182.72 236.22 185.14 232.11 C 199.23 208.53 227.12 200.12 251.09 190.27 C 244.69 186.69 252.92 188.63 252.99 184.23 C 249.48 183.37 246.81 184.61 246.25 188.32 C 236.14 192.77 225.59 196.86 216.74 203.63 C 214.00 204.12 213.11 200.09 215.52 199.03 C 225.21 194.43 233.81 187.89 242.14 181.22 C 245.73 184.10 248.51 180.88 249.10 177.15 C 244.63 179.42 243.75 179.87 242.32 177.48 M 313.90 177.15 C 314.49 180.88 317.27 184.10 320.86 181.22 C 329.36 188.10 338.32 194.61 348.12 199.46 C 349.77 200.96 348.60 203.98 346.30 203.72 C 337.49 196.86 326.92 192.76 316.75 188.32 C 316.19 184.61 313.52 183.37 310.01 184.23 C 310.08 188.63 318.30 186.69 311.91 190.27 C 332.98 198.93 356.60 206.39 372.00 224.04 C 373.88 226.31 379.93 238.59 382.88 231.03 C 375.36 220.53 364.36 212.46 353.95 204.98 C 364.69 211.24 376.63 214.89 388.61 217.79 C 392.92 218.06 392.42 211.64 388.05 212.59 C 360.75 212.15 340.61 190.64 319.28 177.24 C 321.03 182.27 316.43 177.48 313.90 177.15 M 125.92 177.83 C 126.35 185.42 132.28 179.12 125.92 177.83 M 185.45 178.58 C 183.68 186.83 183.41 198.66 186.74 204.87 C 188.22 198.25 187.01 183.56 185.45 178.58 M 269.41 178.57 C 266.49 178.79 263.54 178.81 260.64 178.92 C 265.67 201.08 269.13 226.84 253.46 245.66 C 249.73 245.45 253.98 239.90 254.92 237.84 C 260.20 224.15 263.67 205.67 257.57 192.20 C 249.17 202.53 234.22 210.27 229.19 224.24 C 225.52 232.77 228.99 242.07 231.58 250.33 C 235.01 251.78 237.94 247.26 241.05 246.02 C 244.08 255.04 250.75 263.02 250.50 272.89 C 261.85 269.54 272.30 257.35 272.03 245.51 C 276.12 252.52 286.87 252.52 290.97 245.51 C 290.67 257.35 301.03 269.71 312.49 272.90 C 312.22 263.04 318.87 255.11 321.89 246.13 C 333.20 259.09 334.55 240.73 335.55 232.75 C 334.66 214.15 315.65 204.19 305.44 192.20 C 299.23 205.31 302.96 223.63 307.72 237.15 C 308.62 239.45 313.38 245.19 309.54 245.66 C 294.03 226.89 296.96 201.12 302.57 179.08 C 291.47 177.63 280.48 179.27 269.41 178.57 M 377.33 177.94 C 376.50 186.70 373.27 198.31 376.97 205.24 C 380.04 196.56 378.91 186.86 377.33 177.94 M 435.38 178.26 C 430.32 184.89 440.55 179.07 435.38 178.26 M 193.13 182.11 C 190.12 187.96 191.51 194.87 193.00 200.93 C 196.64 196.66 194.15 187.72 193.13 182.11 M 369.07 182.26 C 369.09 188.15 366.63 196.25 369.90 200.96 C 371.99 195.53 372.98 186.67 369.07 182.26 M 142.53 182.91 C 136.77 191.56 149.91 185.94 142.53 182.91 M 201.11 183.26 C 200.02 186.31 198.98 189.67 200.00 192.90 C 203.49 200.28 204.25 182.96 201.11 183.26 M 361.11 183.38 C 360.36 184.15 358.36 198.84 362.78 193.64 C 363.87 190.50 363.60 184.90 361.11 183.38 M 418.22 183.43 C 417.81 193.45 426.23 182.99 418.22 183.43 M 171.38 184.93 C 168.37 191.93 168.15 200.88 171.17 208.00 C 177.31 203.18 169.87 192.04 171.38 184.93 M 176.99 185.43 C 176.55 191.97 174.39 202.49 179.87 206.73 C 181.05 201.56 180.26 189.71 176.99 185.43 M 385.31 185.50 C 383.53 190.98 381.38 201.32 383.13 206.73 C 388.46 202.80 387.00 190.45 385.31 185.50 M 391.32 185.48 C 393.07 192.35 385.75 203.42 391.84 207.92 C 394.99 201.51 393.36 189.40 391.32 185.48 M 137.05 194.24 C 133.35 200.74 144.16 197.74 137.05 194.24 M 425.21 194.08 C 419.07 200.52 431.01 198.18 425.21 194.08 M 144.19 212.86 C 143.66 222.00 152.47 211.91 144.19 212.86 M 415.25 213.07 C 413.97 222.32 423.55 211.13 415.25 213.07 M 190.47 215.41 C 185.10 217.39 179.59 218.88 173.87 219.39 C 166.40 219.29 173.68 230.57 177.65 230.85 C 179.31 225.37 191.47 217.71 190.47 215.41 M 371.14 214.99 C 375.71 220.46 381.82 224.42 385.34 230.84 C 389.67 230.57 390.86 224.34 392.94 221.06 C 386.41 217.66 378.01 218.43 371.14 214.99 M 214.81 216.46 C 212.76 219.79 220.97 223.12 224.79 223.18 C 223.38 219.12 218.41 218.00 214.81 216.46 M 347.50 216.74 C 344.24 218.02 340.22 219.24 338.45 222.44 C 340.03 225.01 352.22 218.00 347.50 216.74 M 205.36 221.03 C 206.85 226.84 215.56 228.84 220.99 230.98 C 218.03 225.60 211.38 221.82 205.36 221.03 M 354.59 221.42 C 350.20 223.71 344.83 225.85 342.33 230.30 C 344.64 231.66 363.62 221.71 354.59 221.42 M 198.40 225.04 C 201.99 232.69 213.84 235.49 221.23 239.82 C 214.75 234.10 206.84 227.20 198.40 225.04 M 361.59 225.32 C 355.21 230.33 347.16 233.88 341.74 239.80 C 349.76 236.10 358.32 232.84 364.79 226.58 C 365.26 224.40 362.88 225.10 361.59 225.32 M 193.18 230.05 C 195.11 237.44 204.47 240.40 210.94 243.07 C 206.45 237.52 199.67 232.59 193.18 230.05 M 367.62 230.41 C 362.78 234.54 356.32 237.28 352.45 242.43 C 355.58 243.11 373.67 233.31 367.62 230.41 M 190.01 235.27 C 185.85 240.79 203.28 248.28 207.64 247.49 C 201.53 243.75 196.17 238.88 190.01 235.27 M 372.36 235.58 C 366.54 239.30 361.22 243.78 355.38 247.50 C 359.88 248.77 378.50 239.43 372.36 235.58 M 212.07 242.88 C 213.25 246.99 219.22 247.13 222.86 248.08 C 221.72 244.10 215.51 244.45 212.07 242.88 M 348.60 243.51 C 345.90 244.65 341.73 244.76 340.24 247.28 C 341.42 249.95 355.35 242.92 348.60 243.51 M 208.73 248.05 C 212.66 254.57 216.66 249.37 208.73 248.05 M 353.49 248.26 C 344.35 251.23 353.72 252.58 353.49 248.26 M 169.33 253.42 C 162.28 258.72 177.61 256.60 169.33 253.42 M 392.15 253.32 C 388.05 261.19 401.55 254.08 392.15 253.32 M 277.37 254.17 C 272.48 257.81 284.96 255.85 286.83 256.24 C 287.32 251.68 279.33 255.20 277.37 254.17 M 280.31 260.48 C 277.18 261.51 270.87 258.99 270.30 263.13 C 277.80 261.59 285.70 263.47 292.94 262.34 C 289.46 259.75 284.50 260.49 280.31 260.48 M 274.81 268.69 C 270.65 269.71 261.06 267.54 261.03 273.81 C 270.84 278.77 283.20 273.70 293.88 275.87 C 296.60 277.39 305.54 273.89 300.59 270.54 C 292.39 267.59 283.37 268.82 274.81 268.69 M 179.08 269.91 C 179.03 278.51 187.07 269.56 179.08 269.91 M 191.16 270.03 C 187.93 278.09 202.32 270.53 191.16 270.03 M 370.24 270.31 C 360.34 274.44 379.12 274.10 370.24 270.31 M 381.36 270.19 C 376.50 277.38 388.94 270.46 381.36 270.19 M 252.89 277.12 C 269.22 284.54 293.82 283.73 310.12 277.19 C 291.20 280.09 271.78 280.24 252.89 277.12 M 200.14 278.04 C 199.97 282.36 204.79 283.57 207.88 285.16 C 223.60 292.19 232.25 308.52 246.11 317.40 C 241.45 317.87 235.66 317.58 231.90 321.06 C 236.98 326.57 242.50 336.83 251.59 334.24 C 259.30 334.10 270.44 330.47 274.97 339.05 C 273.57 341.84 271.61 345.75 267.84 344.71 C 258.02 341.95 243.18 346.61 242.27 358.23 C 239.32 366.10 248.99 363.44 252.00 367.24 C 250.57 376.37 246.97 385.73 248.96 395.05 C 257.88 392.39 266.76 389.40 275.03 385.08 C 277.39 396.66 285.61 396.66 287.97 385.08 C 296.24 389.40 305.12 392.39 314.04 395.04 C 315.73 386.61 313.21 377.92 311.16 369.76 C 309.45 362.08 325.68 367.27 320.58 357.51 C 319.39 346.02 304.79 342.14 295.16 344.71 C 291.38 345.75 289.44 341.84 288.02 339.05 C 294.25 328.56 308.12 336.09 317.56 334.33 C 322.90 330.99 327.69 326.38 331.10 321.05 C 327.47 317.37 321.46 318.16 316.87 317.38 C 330.53 308.73 339.09 292.66 354.44 285.46 C 357.74 283.74 362.96 282.59 362.89 277.97 C 348.46 282.02 333.16 275.63 318.44 279.34 C 308.00 280.14 302.71 291.82 293.33 293.85 C 290.91 281.14 280.74 295.48 274.06 286.99 C 271.22 291.33 268.14 297.14 263.33 290.68 C 247.04 270.65 221.22 282.53 200.14 278.04 M 189.02 286.95 C 188.88 294.43 195.17 287.57 189.02 286.95 M 372.33 287.21 C 367.92 293.23 377.43 288.53 372.33 287.21 M 205.16 292.16 C 205.04 299.82 212.82 292.04 205.16 292.16 M 355.39 292.06 C 350.35 299.58 363.15 292.51 355.39 292.06 M 200.26 302.24 C 193.55 306.02 206.32 306.99 200.26 302.24 M 361.95 301.97 C 358.04 309.66 369.85 303.53 361.95 301.97 M 208.53 313.74 C 205.20 323.45 217.21 314.99 208.53 313.74 M 351.41 314.41 C 350.42 324.42 359.67 312.72 351.41 314.41 M 219.05 314.80 C 219.71 324.47 228.90 314.04 219.05 314.80 M 340.35 315.22 C 334.94 323.78 350.43 314.23 340.35 315.22 M 217.02 329.02 C 215.93 336.34 224.34 327.93 217.02 329.02 M 343.02 329.02 C 341.93 336.34 350.34 327.93 343.02 329.02 M 227.99 332.07 C 228.46 339.60 235.41 331.19 227.99 332.07 M 332.28 331.86 C 327.95 339.24 340.13 332.00 332.28 331.86 M 244.18 339.23 C 240.27 344.23 251.64 339.84 244.18 339.23 M 317.18 339.23 C 313.27 344.23 324.64 339.84 317.18 339.23 M 222.97 345.24 C 219.35 351.09 230.50 347.55 222.97 345.24 M 233.09 344.99 C 233.23 353.18 240.60 345.06 233.09 344.99 M 327.47 345.13 C 322.70 352.82 334.70 345.25 327.47 345.13 M 339.27 345.07 C 332.61 350.21 345.25 348.71 339.27 345.07 M 241.32 375.24 C 234.53 380.52 249.23 377.78 241.32 375.24 M 320.22 375.15 C 316.53 381.95 329.10 376.35 320.22 375.15 M 266.40 399.22 C 260.41 401.95 264.75 410.17 269.49 411.66 C 276.21 411.21 282.73 413.34 289.39 411.49 C 296.01 414.14 303.91 402.80 296.59 399.22 C 291.75 397.44 291.90 403.52 290.69 406.69 C 284.81 410.25 278.18 410.25 272.31 406.69 C 271.09 403.52 271.25 397.44 266.40 399.22 M 280.31 422.14 C 276.71 424.88 277.90 430.42 281.12 432.97 C 285.97 431.88 286.55 421.05 280.31 422.14 Z" />
<path fill="#000000" opacity="1.00" d=" M 103.98 37.06 C 108.73 39.76 106.69 49.06 109.70 54.21 C 119.64 46.76 119.96 69.53 127.93 75.07 C 120.85 72.42 112.94 73.76 106.11 76.59 C 102.93 75.30 98.24 72.80 101.94 69.24 C 95.48 70.52 89.23 72.50 83.05 74.76 C 87.80 65.91 100.02 65.59 108.70 64.24 C 106.08 55.45 101.62 46.43 103.98 37.06 Z" />
<path fill="#000000" opacity="1.00" d=" M 457.31 37.25 C 463.57 43.05 456.56 56.06 454.40 64.22 C 463.15 65.39 475.36 65.75 479.94 74.77 C 473.77 72.49 467.52 70.52 461.06 69.24 C 464.76 72.80 460.07 75.30 456.89 76.59 C 450.05 73.76 442.15 72.43 435.07 75.07 C 443.22 70.13 442.34 46.30 453.08 54.96 C 455.13 49.21 455.83 43.14 457.31 37.25 Z" />
<path fill="#000000" opacity="1.00" d=" M 179.60 58.43 C 180.84 58.03 182.55 57.39 181.09 59.18 C 174.93 66.36 165.39 68.99 157.94 74.41 C 170.15 76.56 180.07 65.92 190.97 62.08 C 179.86 75.05 161.06 80.62 144.82 83.86 C 151.14 85.44 157.88 84.24 164.17 86.16 C 161.02 88.86 155.55 86.82 151.66 87.70 C 152.52 92.01 156.09 95.56 155.77 100.14 C 150.78 95.92 149.34 88.65 143.90 84.99 C 150.20 100.48 153.20 119.61 148.68 136.11 C 145.50 124.72 151.14 110.65 142.99 101.26 C 141.44 109.45 143.99 120.73 140.94 129.90 C 135.55 125.61 141.68 114.79 138.70 108.42 C 133.11 99.49 142.55 87.85 135.19 79.43 C 144.34 79.02 150.60 72.53 157.65 67.77 C 166.17 68.44 172.02 60.96 179.60 58.43 Z" />
<path fill="#000000" opacity="1.00" d=" M 381.14 57.88 C 398.20 62.75 410.96 75.14 427.97 79.34 C 420.53 87.47 429.25 98.86 424.84 107.96 C 421.65 114.91 426.20 123.54 422.93 129.92 C 418.22 121.97 421.93 109.27 420.01 101.24 C 411.64 110.52 417.86 125.09 414.28 136.23 C 409.59 119.65 413.05 100.49 418.98 84.84 C 413.92 88.98 412.02 95.73 407.22 100.16 C 406.84 95.56 410.32 92.00 411.71 87.85 C 407.93 86.77 401.52 89.02 398.94 86.04 C 405.28 84.65 412.11 86.21 418.22 83.66 C 402.30 80.56 382.55 75.44 372.04 62.04 C 382.97 65.73 392.89 77.04 405.13 74.32 C 397.17 68.82 386.93 66.09 381.14 57.88 Z" />
<path fill="#000000" opacity="1.00" d=" M 238.90 86.84 C 244.32 92.92 245.82 101.94 247.10 109.80 C 241.65 104.91 242.38 93.65 238.90 86.84 Z" />
<path fill="#000000" opacity="1.00" d=" M 323.44 87.41 C 322.73 92.34 321.18 105.72 315.83 109.78 C 316.75 102.09 318.93 93.60 323.44 87.41 Z" />
<path fill="#000000" opacity="1.00" d=" M 246.37 90.44 C 251.37 95.31 255.55 110.01 253.23 117.66 C 251.00 110.06 247.61 99.23 246.37 90.44 Z" />
<path fill="#000000" opacity="1.00" d=" M 316.40 90.47 C 317.78 97.62 310.13 108.68 310.76 117.79 C 306.44 111.59 311.01 97.10 316.40 90.47 Z" />
<path fill="#000000" opacity="1.00" d=" M 235.05 91.15 C 239.91 91.88 241.71 107.79 234.18 100.95 C 235.88 97.88 235.86 94.49 235.05 91.15 Z" />
<path fill="#000000" opacity="1.00" d=" M 326.37 91.23 C 329.58 91.57 325.70 98.27 328.86 100.95 C 321.81 106.74 323.44 94.86 326.37 91.23 Z" />
<path fill="#000000" opacity="1.00" d=" M 256.79 106.24 C 259.96 108.57 259.37 115.73 260.16 119.87 C 255.59 118.43 257.92 110.26 256.79 106.24 Z" />
<path fill="#000000" opacity="1.00" d=" M 305.64 106.02 C 305.28 109.37 307.74 119.15 302.78 119.67 C 302.54 114.95 303.74 110.30 305.64 106.02 Z" />
<path fill="#000000" opacity="1.00" d=" M 239.51 137.28 C 244.35 136.43 269.19 134.85 257.09 145.20 C 253.36 148.46 253.47 153.88 250.92 157.89 C 244.57 154.21 236.20 143.49 239.51 137.28 Z" />
<path fill="#000000" opacity="1.00" d=" M 307.63 137.47 C 312.14 138.35 326.77 132.74 324.65 141.54 C 321.38 147.38 318.59 154.97 312.08 157.88 C 312.13 150.13 294.59 138.67 307.63 137.47 Z" />
<path fill="#000000" opacity="1.00" d=" M 203.29 154.43 C 213.90 155.39 199.66 163.13 196.24 160.08 C 197.11 157.55 202.13 158.04 203.29 154.43 Z" />
<path fill="#000000" opacity="1.00" d=" M 359.03 154.47 C 361.47 155.70 363.12 159.13 366.66 158.79 C 366.75 164.69 348.30 155.88 359.03 154.47 Z" />
<path fill="#000000" opacity="1.00" d=" M 215.07 159.56 C 216.27 159.39 219.64 159.86 217.03 161.03 C 209.68 163.90 201.72 165.54 193.83 165.78 C 200.01 161.59 208.27 162.37 215.07 159.56 Z" />
<path fill="#000000" opacity="1.00" d=" M 347.15 159.53 C 354.07 161.80 362.13 161.77 368.53 165.37 C 365.48 166.64 343.72 163.09 347.15 159.53 Z" />
<path fill="#000000" opacity="1.00" d=" M 226.60 161.61 C 226.94 166.29 207.57 171.83 199.86 169.54 C 208.38 165.38 218.21 166.04 226.60 161.61 Z" />
<path fill="#000000" opacity="1.00" d=" M 334.93 161.00 C 343.75 165.80 354.07 165.36 363.14 169.53 C 354.01 170.03 340.36 169.33 334.93 161.00 Z" />
<path fill="#000000" opacity="1.00" d=" M 229.66 166.46 C 238.80 165.51 221.02 172.37 220.14 171.03 C 222.54 168.47 226.39 167.63 229.66 166.46 Z" />
<path fill="#000000" opacity="1.00" d=" M 330.34 165.87 C 334.93 166.95 340.17 167.80 343.34 171.63 C 339.02 170.21 332.39 170.29 330.34 165.87 Z" />
<path fill="#000000" opacity="1.00" d=" M 271.34 193.16 C 278.26 194.28 284.91 194.89 291.86 193.19 C 291.69 201.30 286.94 209.47 281.13 214.69 C 276.41 208.40 271.39 201.28 271.34 193.16 Z" />
<path fill="#000000" opacity="1.00" d=" M 253.60 204.48 C 256.61 204.86 246.13 213.95 244.58 212.62 C 246.84 209.22 249.66 205.94 253.60 204.48 Z" />
<path fill="#000000" opacity="1.00" d=" M 308.03 203.93 C 312.79 205.36 316.26 209.13 318.83 213.22 C 314.27 211.51 310.31 208.25 308.03 203.93 Z" />
<path fill="#000000" opacity="1.00" d=" M 255.22 210.27 C 253.63 214.61 241.90 225.57 235.16 231.13 C 238.68 221.75 246.73 215.03 255.22 210.27 Z" />
<path fill="#000000" opacity="1.00" d=" M 307.14 209.95 C 315.99 214.66 324.21 221.56 327.82 231.20 C 320.66 224.96 310.93 216.07 307.14 209.95 Z" />
<path fill="#000000" opacity="1.00" d=" M 251.63 220.63 C 252.63 222.99 240.31 236.28 236.49 237.52 C 240.32 231.00 245.38 224.95 251.63 220.63 Z" />
<path fill="#000000" opacity="1.00" d=" M 310.13 219.82 C 317.34 224.16 322.58 231.14 326.71 238.33 C 320.39 233.20 314.04 226.97 310.13 219.82 Z" />
<path fill="#000000" opacity="1.00" d=" M 249.92 231.33 C 253.87 235.88 244.57 236.99 241.09 239.96 C 242.02 235.61 245.93 232.74 249.92 231.33 Z" />
<path fill="#000000" opacity="1.00" d=" M 312.14 231.09 C 316.57 232.18 320.75 235.30 321.90 239.87 C 318.34 236.52 310.71 237.53 312.14 231.09 Z" />
<path fill="#000000" opacity="1.00" d=" M 239.22 291.91 C 256.37 296.62 270.15 308.99 281.10 321.97 C 279.64 315.43 274.80 310.31 273.14 303.85 C 277.59 305.60 278.50 311.50 281.86 313.75 C 284.24 310.26 285.84 305.84 289.85 303.83 C 288.11 310.26 283.52 315.50 281.89 321.97 C 292.86 309.00 306.62 296.62 323.78 291.91 C 317.09 300.83 300.74 302.62 297.03 314.96 C 305.89 311.09 313.29 303.91 323.13 302.20 C 318.36 309.72 306.15 309.71 302.64 318.73 C 294.69 321.83 285.57 325.19 281.17 332.48 C 277.50 324.12 267.79 322.28 260.38 318.68 C 256.80 309.66 244.57 309.67 239.82 302.14 C 249.64 303.98 257.20 310.90 265.97 314.96 C 262.26 302.62 245.91 300.83 239.22 291.91 Z" />
<path fill="#000000" opacity="1.00" d=" M 281.11 340.71 C 281.81 348.24 301.33 363.86 290.38 366.72 C 293.52 372.11 299.68 374.62 302.99 379.76 C 293.45 378.87 287.39 370.07 281.84 363.31 C 275.67 368.86 270.30 378.70 260.69 379.67 C 260.20 376.04 278.18 366.90 269.61 365.81 C 265.75 355.32 281.93 351.56 281.11 340.71 Z" />
</svg>
